<?xml version="1.0" standalone="no"?>
<!DOCTYPE svg PUBLIC "-//W3C//DTD SVG 20010904//EN"
 "http://www.w3.org/TR/2001/REC-SVG-20010904/DTD/svg10.dtd">
<svg version="1.0" xmlns="http://www.w3.org/2000/svg"
 width="80px" height="80px" viewBox="0 0 495.000000 495.000000"
 preserveAspectRatio="xMidYMid meet">
<g transform="translate(0.000000,495.000000) scale(0.100000,-0.100000)"
fill="#1F6D24" stroke="none">
<path d="M2025 4705 c-71 -27 -108 -48 -182 -104 -218 -164 -441 -481 -572
-814 -39 -97 -86 -257 -95 -320 -4 -27 -9 -59 -12 -70 -2 -12 -5 -62 -5 -112
-2 -361 227 -409 553 -116 42 38 169 185 208 241 13 19 27 37 30 40 13 10 104
167 155 265 187 363 253 737 160 915 -22 42 -33 53 -73 74 -37 19 -118 19
-167 1z"/>
<path d="M2350 4016 c-5 -15 -10 -31 -10 -36 0 -18 -81 -212 -125 -299 -70
-140 -141 -256 -226 -368 -44 -57 -79 -105 -79 -107 0 -2 33 -4 73 -5 137 -4
306 -16 356 -26 10 -2 42 -6 72 -10 56 -7 86 -11 129 -20 13 -2 42 -7 64 -11
93 -13 271 -65 339 -98 64 -30 156 -101 146 -111 -2 -1 -28 -6 -58 -9 -29 -3
-79 -10 -110 -15 -31 -6 -80 -13 -110 -16 -30 -4 -62 -8 -71 -10 -9 -2 -41 -6
-70 -10 -29 -4 -62 -9 -74 -11 -12 -2 -46 -7 -76 -10 -50 -5 -57 -3 -79 20
-35 38 -97 36 -135 -2 -83 -87 -37 -242 72 -242 28 0 43 8 72 39 31 32 46 40
91 46 30 4 61 9 69 10 8 2 38 6 65 9 28 4 61 9 75 11 56 8 108 15 155 21 28 3
58 8 68 10 72 13 179 25 184 21 3 -4 7 -32 8 -64 3 -68 -20 -153 -59 -209
l-26 -39 32 -7 c43 -8 109 -17 179 -24 l57 -6 20 55 c46 122 53 304 18 420
-45 145 -112 228 -311 386 -299 238 -468 409 -640 646 -76 105 -73 102 -85 71z"/>
<path d="M2139 2586 c-2 -2 -48 -6 -101 -10 -53 -3 -103 -8 -110 -11 -7 -2
-29 -6 -48 -9 -64 -8 -99 -18 -112 -34 -8 -9 -13 -42 -13 -81 0 -75 5 -82 75
-99 42 -10 63 -13 180 -28 78 -9 581 -12 675 -3 103 10 180 19 207 25 10 2 27
6 37 8 39 9 61 27 62 51 2 85 1 114 -5 124 -9 14 -97 39 -171 47 -33 3 -69 8
-80 11 -22 5 -591 14 -596 9z"/>
<path d="M1422 1931 l0 -369 52 -7 c28 -4 60 -9 71 -11 10 -2 35 -6 55 -9 118
-16 400 -56 425 -60 17 -2 53 -7 80 -10 28 -4 57 -8 65 -10 8 -2 42 -7 75 -11
33 -3 78 -9 100 -13 22 -4 56 -4 75 0 19 4 58 10 85 14 28 3 61 7 75 10 43 7
104 16 145 21 22 2 51 7 65 9 14 2 45 6 70 10 50 6 117 16 141 20 9 2 40 6 70
10 30 3 98 13 151 21 54 8 99 14 101 14 1 0 2 167 2 370 l0 371 -45 -6 c-25
-3 -72 -10 -105 -15 -33 -5 -82 -11 -110 -15 -27 -3 -75 -10 -105 -15 -30 -5
-77 -12 -105 -15 -53 -6 -55 -7 -215 -30 -245 -36 -312 -38 -455 -11 -11 2
-45 7 -75 11 -30 4 -62 8 -70 10 -8 1 -37 6 -65 9 -27 4 -61 9 -75 11 -14 2
-63 9 -110 15 -47 6 -98 13 -115 16 -16 3 -43 7 -60 9 -16 2 -61 8 -100 14
-38 6 -75 11 -81 11 -8 0 -11 -103 -12 -369z"/>
<path d="M1099 1468 c-7 -13 -20 -37 -29 -53 -10 -17 -36 -66 -60 -110 -24
-44 -85 -159 -138 -255 -52 -96 -110 -204 -130 -240 -19 -36 -47 -87 -62 -115
-15 -27 -43 -80 -63 -117 -21 -37 -37 -69 -37 -71 0 -3 26 -7 58 -11 60 -7 86
-11 192 -26 94 -14 136 -19 183 -25 23 -3 53 -7 66 -10 13 -2 49 -7 80 -11 31
-3 63 -7 71 -9 8 -1 40 -6 70 -10 30 -4 63 -9 74 -11 10 -2 44 -6 75 -10 31
-3 58 -8 61 -9 3 -2 34 -6 70 -10 35 -3 67 -8 70 -10 3 -1 34 -6 70 -10 36 -4
72 -9 82 -10 9 -2 38 -6 65 -10 26 -4 59 -9 73 -11 14 -2 50 -6 80 -10 30 -3
64 -8 75 -10 11 -2 43 -7 70 -10 28 -3 70 -10 95 -14 45 -9 195 -6 260 4 19 3
55 8 78 11 24 4 51 8 60 10 10 1 46 6 82 10 36 4 67 8 70 10 3 1 30 6 61 9 31
4 66 8 76 10 11 3 44 7 74 11 30 3 65 8 79 10 40 7 81 13 139 20 30 4 62 8 71
10 9 2 39 6 66 9 27 4 65 9 84 12 70 10 96 13 130 19 19 3 55 8 80 10 25 3 72
10 105 15 33 5 83 12 110 15 28 4 77 10 110 15 33 5 83 12 110 16 28 3 53 8
56 10 4 2 -26 64 -65 136 -40 73 -94 174 -121 223 -27 50 -58 108 -70 130 -12
22 -77 142 -144 267 -93 172 -126 226 -139 223 -9 -1 -39 -6 -67 -9 -27 -4
-61 -9 -75 -11 -14 -2 -47 -6 -73 -10 -27 -4 -56 -8 -65 -10 -10 -1 -44 -6
-77 -9 -33 -4 -67 -9 -75 -11 -8 -2 -37 -6 -65 -10 -27 -3 -61 -8 -75 -10 -14
-2 -97 -13 -185 -25 -88 -11 -167 -23 -175 -25 -8 -2 -40 -7 -70 -10 -30 -3
-81 -10 -113 -16 -96 -17 -188 -15 -292 5 -11 2 -45 7 -76 10 -31 4 -65 8 -75
10 -11 2 -41 7 -69 10 -64 8 -131 17 -210 30 -16 2 -52 7 -80 11 -27 3 -81 11
-120 16 -38 6 -81 12 -95 14 -32 3 -131 17 -150 20 -8 2 -37 6 -65 9 -84 10
-129 17 -147 22 -10 3 -21 -4 -29 -18z"/>
<path d="M4227 612 c-22 -25 -21 -48 3 -72 52 -52 126 19 79 76 -16 20 -63 17
-82 -4z m79 -10 c12 -18 3 -55 -16 -67 -18 -11 -58 4 -65 25 -15 48 55 85 81
42z"/>
<path d="M4251 578 c0 -18 3 -27 6 -20 7 17 21 15 26 -5 3 -10 4 -2 3 17 -1
24 -7 36 -19 38 -13 3 -17 -3 -16 -30z m29 12 c0 -5 -4 -10 -10 -10 -5 0 -10
5 -10 10 0 6 5 10 10 10 6 0 10 -4 10 -10z"/>
</g>
</svg>
